# xmcd CD database file
#
# Track frame offsets:
#	150
#	12462
#	27577
#	40698
#	53929
#	67413
#	81661
#	99472
#	108472
#	122257
#	136506
#	150846
#	164620
#	177410
#	191224
#	204397
#	219072
#	236804
#	252142
#	266037
#
# Disc length: 3734 seconds
#
# Revision: 0
# Processed by: cddbd v1.5.1PL2 Copyright (c) Steve Scherf et al.
# Submitted via: CDex 1.51
#
DISCID=1b0e9414
DTITLE=Charlie Parker - Bird Of Paradise Disc 1
DYEAR=2001
DGENRE=Jazz
TTITLE0=Sweet Georgia Brown 
TTITLE1=Loverman
TTITLE2=Quasimodo
TTITLE3=Yardbird State
TTITLE4=Honeysuckle Rose
TTITLE5=All The Things You Are
TTITLE6=Vine Street Boogie
TTITLE7=Hot Blues
TTITLE8=Moose The Moochie
TTITLE9=Dewey Square
TTITLE10=Blues
TTITLE11=Relaxin' At Camarillo
TTITLE12=Cherokee
TTITLE13=A Night In Tunisia
TTITLE14=Wrap Your Troubles In Dreams
TTITLE15=My Old Flame
TTITLE16=Jump The Blues
TTITLE17=How Deep Is The Ocean
TTITLE18=You Say Forward, I'll March
TTITLE19=Out Of Nowhere
EXTD=YEAR: 2001
EXTT0=
EXTT1=
EXTT2=
EXTT3=
EXTT4=
EXTT5=
EXTT6=
EXTT7=
EXTT8=
EXTT9=
EXTT10=
EXTT11=
EXTT12=
EXTT13=
EXTT14=
EXTT15=
EXTT16=
EXTT17=
EXTT18=
EXTT19=
PLAYORDER=
